<?xml version="1.0" encoding="UTF-8" standalone="no"?>
<!-- Created with Inkscape (http://www.inkscape.org/) -->

<svg
   height="334.84457"
   width="1404.0627"
   version="1.1"
   id="svg1"
   xmlns="http://www.w3.org/2000/svg"
   xmlns:svg="http://www.w3.org/2000/svg"
   xmlns:rdf="http://www.w3.org/1999/02/22-rdf-syntax-ns#"
   xmlns:cc="http://creativecommons.org/ns#"
   xmlns:dc="http://purl.org/dc/elements/1.1/">
  <defs
     id="defs4">
    <clipPath
       clipPathUnits="userSpaceOnUse"
       id="clipPath9">
      <rect
         style="fill:#000000;fill-opacity:0;stroke:#000000;stroke-width:40;stroke-linecap:round;stroke-linejoin:miter;stroke-dasharray:none;stroke-opacity:1"
         id="rect10"
         width="191.27238"
         height="118.79394"
         x="564.27124"
         y="372.64526"
         ry="0.70710677" />
    </clipPath>
    <clipPath
       clipPathUnits="userSpaceOnUse"
       id="clipPath50">
      <rect
         style="fill:#000000;stroke-width:1.34383"
         id="rect50"
         width="101.13094"
         height="177.56471"
         x="232.14081"
         y="853.53973"
         ry="5.5917578"
         transform="matrix(-0.0040853,0.99999166,0.9999951,-0.00312898,0,0)" />
    </clipPath>
    <clipPath
       clipPathUnits="userSpaceOnUse"
       id="clipPath53">
      <rect
         style="fill:#000000;stroke-width:1.13622"
         id="rect53"
         width="121.74965"
         height="105.4416"
         x="-325.26614"
         y="832.1825"
         ry="0"
         transform="matrix(-0.00201506,-0.99999797,0.99997988,0.00634357,0,0)" />
    </clipPath>
  </defs>
  <metadata
     id="metadata7">
    <rdf:RDF>
      <cc:Work
         rdf:about="">
        <dc:format>image/svg+xml</dc:format>
        <dc:type
           rdf:resource="http://purl.org/dc/dcmitype/StillImage" />
      </cc:Work>
    </rdf:RDF>
  </metadata>
  <g
     id="layer1"
     transform="translate(-259.93719,-329.22456)">
    <g
       id="g80"
       transform="translate(216,90)">
      <rect
         style="fill:#0094b3;fill-opacity:1;stroke-width:0.98851"
         id="rect1"
         width="41.943913"
         height="231.65625"
         x="10.250052"
         y="265.20416"
         ry="21.366219"
         transform="matrix(0.94713958,-0.32082177,0.30767758,0.95149068,0,0)" />
      <rect
         style="fill:#0094b3;fill-opacity:1;stroke-width:0.98851"
         id="rect2"
         width="41.943913"
         height="231.65625"
         x="-325.62665"
         y="149.85193"
         ry="21.366219"
         transform="matrix(-0.94713958,-0.32082177,-0.30767758,0.95149068,0,0)" />
      <ellipse
         style="fill:#000000;fill-opacity:0;stroke:#0094b3;stroke-width:40;stroke-linecap:round;stroke-linejoin:miter;stroke-dasharray:none;stroke-opacity:1"
         id="path2"
         cx="289.56647"
         cy="400.94366"
         rx="38.879837"
         ry="42.379837" />
      <rect
         style="fill:#0094b3;fill-opacity:1;stroke-width:0.947656"
         id="rect3"
         width="39.824978"
         height="224.23174"
         x="-397.55887"
         y="234.46361"
         ry="20.681438"
         transform="matrix(-0.99991418,-0.01310071,9.7566538e-4,0.99999952,0,0)" />
      <rect
         style="fill:#000000;fill-opacity:0;stroke:#0094b3;stroke-width:40;stroke-linecap:round;stroke-linejoin:miter;stroke-dasharray:none;stroke-opacity:1"
         id="rect4"
         width="80.256622"
         height="144.95689"
         x="612.00098"
         y="314.30896"
         ry="40.128311"
         clip-path="url(#clipPath9)"
         transform="translate(-182.43355,-15.556354)" />
      <rect
         style="fill:#0094b3;fill-opacity:1;stroke-width:0.508758"
         id="rect11"
         width="39.916183"
         height="64.480003"
         x="-448.23975"
         y="335.62198"
         ry="19.910923"
         transform="matrix(-0.99999294,-0.00375861,0.00340095,0.99999422,0,0)" />
      <rect
         style="fill:#0094b3;fill-opacity:1;stroke-width:0.508758"
         id="rect12"
         width="39.916183"
         height="64.480003"
         x="-528.14441"
         y="335.32166"
         ry="19.910923"
         transform="matrix(-0.99999294,-0.00375861,0.00340095,0.99999422,0,0)" />
      <rect
         style="fill:#000000;fill-opacity:0;stroke:#0094b3;stroke-width:40;stroke-linecap:round;stroke-linejoin:miter;stroke-dasharray:none;stroke-opacity:1"
         id="rect13"
         width="80.256622"
         height="144.95689"
         x="612.00098"
         y="314.30896"
         ry="40.128311"
         clip-path="url(#clipPath9)"
         transform="matrix(1,0,0,-1,-49.497479,816.49531)" />
      <rect
         style="fill:#0094b3;fill-opacity:1;stroke-width:0.508758"
         id="rect15"
         width="39.916183"
         height="64.480003"
         x="-663.80719"
         y="-466.13184"
         ry="19.910923"
         transform="matrix(-0.99999294,0.00375861,0.00340095,-0.99999422,0,0)" />
      <rect
         style="fill:#0094b3;fill-opacity:1;stroke-width:0.724022"
         id="rect16"
         width="39.822723"
         height="130.89513"
         x="-581.95264"
         y="328.80386"
         ry="19.911362"
         transform="matrix(-0.99997075,-0.00764796,0.00167138,0.9999986,0,0)" />
      <rect
         style="fill:#0094b3;fill-opacity:1;stroke-width:0.947656"
         id="rect17"
         width="39.824978"
         height="224.23174"
         x="-725.68872"
         y="230.16487"
         ry="20.681438"
         transform="matrix(-0.99991418,-0.01310071,9.7566538e-4,0.99999952,0,0)" />
      <rect
         style="fill:#0094b3;fill-opacity:1;stroke-width:0.649815"
         id="rect18"
         width="39.822315"
         height="105.43971"
         x="309.04938"
         y="655.35791"
         ry="19.911158"
         transform="matrix(-0.0061607,0.99998102,0.99999785,-0.00207488,0,0)" />
      <path
         style="fill:#ccff00;fill-opacity:0;stroke:#0094b3;stroke-width:40.0327;stroke-linecap:round;stroke-linejoin:miter;stroke-dasharray:none;stroke-opacity:1"
         id="path58"
         d="m 695.77769,-658.76259 a 51.209396,47.334698 0 0 1 -64.94303,26.43091 51.209396,47.334698 0 0 1 -31.16654,-58.92517 51.209396,47.334698 0 0 1 62.45244,-31.13978"
         transform="matrix(0.28246835,0.95927662,-0.94156788,0.33682329,0,0)" />
      <rect
         style="fill:#0094b3;fill-opacity:1;stroke-width:0.631055"
         id="rect58"
         width="39.822231"
         height="99.439774"
         x="374.55566"
         y="784.51678"
         ry="18.778133"
         transform="matrix(-0.00581014,0.99998312,0.99999758,-0.00220007,0,0)" />
      <path
         style="fill:#ccff00;fill-opacity:0;stroke:#0094b3;stroke-width:40;stroke-linecap:round;stroke-linejoin:miter;stroke-dasharray:none;stroke-opacity:1"
         id="path59"
         d="m 858.34439,440.45068 a 60.875,30.625 0 0 1 -37.814,5.4812" />
      <path
         style="fill:#ccff00;fill-opacity:0;stroke:#0094b3;stroke-width:40.0327;stroke-linecap:round;stroke-linejoin:miter;stroke-dasharray:none;stroke-opacity:1"
         id="path62"
         d="m 742.05827,-790.57033 a 51.209396,47.334698 0 0 1 -64.94303,26.43091 51.209396,47.334698 0 0 1 -31.16654,-58.92517 51.209396,47.334698 0 0 1 62.45244,-31.13978"
         transform="matrix(0.28246835,0.95927662,-0.94156788,0.33682329,0,0)" />
      <rect
         style="fill:#0094b3;fill-opacity:1;stroke-width:0.631055"
         id="rect62"
         width="39.822231"
         height="99.439774"
         x="374.85745"
         y="921.69763"
         ry="18.778133"
         transform="matrix(-0.00581014,0.99998312,0.99999758,-0.00220007,0,0)" />
      <path
         style="fill:#0094b3;fill-opacity:0;stroke:#0094b3;stroke-width:40;stroke-linecap:round;stroke-linejoin:miter;stroke-dasharray:none;stroke-opacity:1"
         id="path63"
         d="m 995.52311,440.45068 a 60.875,30.625 0 0 1 -37.81401,5.4812" />
      <rect
         style="fill:#0094b3;fill-opacity:1;stroke-width:0.715478"
         id="rect65"
         width="39.82267"
         height="127.82409"
         x="-1070.3906"
         y="326.31744"
         ry="19.444206"
         transform="matrix(-0.99997211,-0.00746854,0.00171154,0.99999854,0,0)" />
      <path
         style="fill:#ccff00;fill-opacity:0;stroke:#0094b3;stroke-width:40;stroke-linecap:round;stroke-linejoin:miter;stroke-dasharray:none;stroke-opacity:1"
         id="path65"
         d="m 1050.304,397.24511 a 37.123108,47.022602 0 0 1 37.543,-41.56272 37.123108,47.022602 0 0 1 36.3338,43.25244" />
      <rect
         style="fill:#0094b3;fill-opacity:1;stroke-width:0.947656"
         id="rect66"
         width="39.824978"
         height="224.23174"
         x="-1202.3258"
         y="223.92058"
         ry="20.681438"
         transform="matrix(-0.99991418,-0.01310071,9.7566538e-4,0.99999952,0,0)" />
      <rect
         style="fill:#000000;fill-opacity:0;stroke:#0094b3;stroke-width:40;stroke-linecap:round;stroke-linejoin:miter;stroke-dasharray:none;stroke-opacity:1"
         id="rect67"
         width="80.256622"
         height="144.95689"
         x="612.00098"
         y="314.30896"
         ry="40.128311"
         clip-path="url(#clipPath9)"
         transform="translate(630.73925,-15.556354)" />
      <rect
         style="fill:#0094b3;fill-opacity:1;stroke-width:0.508758"
         id="rect68"
         width="39.916183"
         height="64.480003"
         x="-1261.4287"
         y="332.56549"
         ry="19.910923"
         transform="matrix(-0.99999294,-0.00375861,0.00340095,0.99999422,0,0)" />
      <rect
         style="fill:#0094b3;fill-opacity:1;stroke-width:0.508758"
         id="rect69"
         width="39.916183"
         height="64.480003"
         x="-1341.3334"
         y="332.26517"
         ry="19.910923"
         transform="matrix(-0.99999294,-0.00375861,0.00340095,0.99999422,0,0)" />
      <rect
         style="fill:#0094b3;fill-opacity:1;stroke-width:0.8188"
         id="rect80"
         width="39.917793"
         height="167.00923"
         x="-1342.0554"
         y="351.93741"
         ry="19.958897"
         transform="matrix(-0.99995262,-0.00973481,0.00131306,0.99999914,0,0)" />
      <path
         style="fill:#000000;fill-opacity:0;stroke:#0094b3;stroke-width:40.9576;stroke-linecap:round;stroke-linejoin:miter;stroke-dasharray:none;stroke-opacity:1"
         id="ellipse80"
         d="m 1322.5132,508.42392 a 38.401043,41.901043 0 0 1 -36.9648,41.87172 38.401043,41.901043 0 0 1 -39.7298,-38.73957" />
    </g>
    <path
       style="fill:#0094b3;fill-opacity:0;stroke:#0094b3;stroke-width:31.4134;stroke-linecap:round;stroke-linejoin:miter;stroke-dasharray:none;stroke-opacity:1"
       id="path80"
       d="M 1421.106,613.81941 A 686.29327,134.29327 0 0 1 581.19256,625.72304 686.29327,134.29327 0 0 1 314.63887,469.41176" />
    <path
       style="fill:#0094b3;fill-opacity:0;stroke:#0094b3;stroke-width:31.4134;stroke-linecap:round;stroke-linejoin:miter;stroke-dasharray:none;stroke-opacity:1"
       id="path81"
       d="m 1586.2829,458.21623 a 686.29327,134.29327 0 0 1 -1.2614,112.10494" />
    <path
       style="fill:#0094b3;fill-opacity:0;stroke:#0094b3;stroke-width:31.4134;stroke-linecap:round;stroke-linejoin:miter;stroke-dasharray:none;stroke-opacity:1"
       id="path82"
       d="m 968.00459,379.71187 a 686.29327,134.29327 0 0 1 381.00101,23.38361" />
    <path
       style="fill:#0094b3;fill-opacity:0;stroke:#0094b3;stroke-width:31.4134;stroke-linecap:round;stroke-linejoin:miter;stroke-dasharray:none;stroke-opacity:1"
       id="path83"
       d="M 639.35433,395.47299 A 686.29327,134.29327 0 0 1 877.82172,380.72075" />
    <path
       style="fill:#0094b3;fill-opacity:0;stroke:#0094b3;stroke-width:31.4134;stroke-linecap:round;stroke-linejoin:miter;stroke-dasharray:none;stroke-opacity:1"
       id="path84"
       d="m 538.18496,408.37327 a 686.29327,134.29327 0 0 1 17.31268,-2.57415" />
  </g>
</svg>
